<?xml version="1.0" encoding="utf-8"?>
<svg id="Layer_1" data-name="Layer 1" xmlns="http://www.w3.org/2000/svg" viewBox="0 0 479.04 108.96" width="189"><defs><style>.cls-1{fill:none;}.cls-2{fill:#828072;}.cls-3{fill:#62618b;}.cls-4{fill:#27b0cf;}.cls-5{fill:#838173;}.cls-6{fill:#7fc3e0;}.cls-7{fill:#97488b;}.cls-8{fill:#873a84;}.cls-9{fill:#674a8c;}.cls-10{fill:#50346f;}.cls-11{fill:none;}.cls-12{fill:none;}.cls-13{fill:#a3d0e5;}.cls-14{fill:#432e71;}.cls-15{fill:#57b6db;}</style></defs><path class="cls-1" d="M867.43,379.09q0-45.66,0-91.31c0-.87.17-1.11,1.09-1.11q238.4,0,476.78,0c1,0,1.17.2,1.16,1.17q0,53.37,0,106.74c0,.84-.14,1.05-1,1.05q-238.52,0-477,0c-.83,0-1-.17-1-1,.05-4.95,0-9.9,0-14.84.28,0,.4.23.56.39a11.82,11.82,0,0,0,8.53,3.73c7.08.19,11.85-6.72,8.91-12.93-1.13-2.41-3.3-3.72-5.46-5s-4.31-2.11-6-3.87a3.88,3.88,0,0,1-1.1-4.45,4.38,4.38,0,0,1,4-2.83,7.69,7.69,0,0,1,4.81,1.48c.72.46,1.29,1.59,2.09,1.34s1.29-1.24,2-1.86c.49-.45.55-.74,0-1.22a15.32,15.32,0,0,0-4.71-3c-3.44-1.27-6.72-.94-9.52,1.54-2.58,2.3-3.12,5.3-2.3,8.53.74,2.89,3,4.53,5.39,5.95,1.51.89,3.07,1.69,4.58,2.58a6.23,6.23,0,0,1,2.87,2.95c1.39,3.52-2,7.32-6,6.85a8.75,8.75,0,0,1-5.39-2.82c-.53-.55-.83-.55-1.3,0A6.29,6.29,0,0,1,867.43,379.09ZM1139,306.39c-2.83,0-5.67,0-8.5-.05a1.06,1.06,0,0,0-1.13.78c-1.33,2.94-2.69,5.85-4,8.78l-.78.16c-2.56,0-5.11,0-7.67,0a1.49,1.49,0,0,0-1.62,1c-2.27,5-4.6,10-6.91,15-.59,1.26-.59,1.26.86,1.26h52c3.7,0,3.7,0,5.15-3.48l.24-.19h25.23c3.71,0,3.71,0,5.19-3.4a1,1,0,0,0,0-.23.65.65,0,0,0,.21-.06l38,0a.78.78,0,0,0,.85-.48c.49-1.17,1-2.33,1.51-3.5l.27-.28q18.17,0,36.33,0a1.65,1.65,0,0,0,1.77-1.16q5.7-12.44,11.49-24.83l3.86-8.39h-1.34q-65.78,0-131.55,0a1.5,1.5,0,0,0-1.58,1.06c-1.3,2.86-2.66,5.7-4,8.55-1.82,0-3.65,0-5.48,0-1.27,0-2.82-.49-3.72.19s-1.2,2.25-1.79,3.41A60.81,60.81,0,0,1,1139,306.39Zm24.52,50.49c-7.6-8.71-18.11-6.76-23.79-1.33a16.33,16.33,0,0,0-1.37,21.67A15.78,15.78,0,0,0,1149,383c5.64.67,10.4-1.2,14.44-5.51a27.3,27.3,0,0,1-.36,6.42,8.26,8.26,0,0,1-3,5,12,12,0,0,1-6.48,2.57c-5.36.49-10.22-.4-13.43-5.35a1.12,1.12,0,0,0-1-.62c-1,0-2.08,0-3.12,0-.58,0-.73.16-.46.7,1.23,2.44,2.63,4.78,5,6.26,5.79,3.58,12,3.92,18.28,1.7a12.4,12.4,0,0,0,8.32-10,28.74,28.74,0,0,0,.54-5c.06-8.89,0-17.78.06-26.67,0-.6-.14-.89-.8-.86-.87,0-1.76,0-2.63,0-.65,0-.83.24-.82.85C1163.49,353.85,1163.47,355.24,1163.47,356.88ZM960.36,367.82c4.32,0,8.63-.05,12.95,0,1.19,0,1.45-.41,1.29-1.44s-.23-2-.44-3c-2.74-12.1-16-15.63-24.52-10.16-8.93,5.75-10,18.46-2.73,26.19,5.76,6.09,19.71,6.67,25.54-3,1.22-2,1.28-2-.73-3.05-1.58-.82-1.62-.85-2.6.71a12.9,12.9,0,0,1-13.83,5.63c-4.84-1-8.86-6.19-8.92-11.31,0-.85.49-.66.92-.66Zm122.1,0c4.36,0,8.71,0,13.07,0,.75,0,1-.17,1-1a16.16,16.16,0,0,0-10.84-15.14c-7.09-2.28-14.21-.07-18.44,5.75-5.65,7.76-3.6,19.26,4.37,24.22,5.94,3.7,17.56,3.74,23-5.51,1-1.69,1-1.67-.75-2.61a6.78,6.78,0,0,1-.84-.45c-.69-.49-1.11-.39-1.57.39a12.88,12.88,0,0,1-6,5.5c-7.85,3.47-16.18-1.25-17.1-9.73-.15-1.44-.15-1.44,1.33-1.44Zm-85.32,0h13.18c.44,0,.89.18.88-.67a16.22,16.22,0,0,0-20-15.91c-7.63,1.64-13.54,9.52-12.36,18.49.95,7.19,6.46,14.25,15.94,14.23,5.9,0,10.63-2.14,14-7,1.64-2.38,1.61-2.37-.91-3.73-.81-.44-1.38-.6-1.84.45a9.43,9.43,0,0,1-1.3,1.86,12.84,12.84,0,0,1-13.39,4.13A12,12,0,0,1,983,369.1c-.09-1,.1-1.33,1.17-1.31C988.51,367.86,992.82,367.82,997.14,367.82Zm243.15,0c4.28,0,8.55,0,12.83,0,1,0,1.24-.32,1.21-1.28a16.29,16.29,0,0,0-20-15.34c-7.37,1.56-13.95,9.45-12.23,19.19,1.45,8.27,7.13,13.07,15.55,13.48a15.4,15.4,0,0,0,14.11-6.78c1.79-2.52,1.74-2.49-.87-4-.91-.52-1.26-.27-1.74.52a12.6,12.6,0,0,1-5.47,5.17c-8.11,3.8-17-1.23-17.51-9.84-.06-1.05.3-1.18,1.18-1.17C1231.66,367.83,1236,367.82,1240.29,367.82Zm65.85-10.06c-3-3.91-6.68-6.06-11.35-6.29a15.38,15.38,0,0,0-11.94,4.47,16.43,16.43,0,0,0-1.44,22,15.08,15.08,0,0,0,10,5.86c5.83.76,10.73-1.11,14.76-5.82v2.36c0,2.86,0,2.81,2.87,2.86,1,0,1.19-.3,1.18-1.22,0-8.89,0-17.78,0-26.67,0-3.12,0-3.1-3.18-3-.7,0-.89.25-.87.9C1306.17,354.58,1306.14,356,1306.14,357.76Zm-112.8-1.07v-2.12c0-3,0-2.92-3-3-1,0-1.26.3-1.26,1.28,0,9.13,0,18.26,0,27.39,0,2.88,0,2.82,2.83,2.91,1.19,0,1.43-.34,1.44-1.47,0-5.58-.32-11.16.21-16.73a10.88,10.88,0,0,1,10.1-10.21c2.93-.27,5.56.62,7.21,3.32a11.32,11.32,0,0,1,1.47,5.48c.27,5.5.14,11,.16,16.5,0,3.26,0,3.24,3.3,3.09.63,0,.83-.21.82-.83-.13-6.74.27-13.48-.25-20.21a12.19,12.19,0,0,0-3.08-7.72c-3.72-4-10.15-4.67-15.1-1.71A26.62,26.62,0,0,0,1193.34,356.69Zm-172.4.51v-2.78c0-2.81,0-2.76-2.78-2.83-1,0-1.34.24-1.33,1.31,0,9.13,0,18.27,0,27.4,0,2.85,0,2.8,2.85,2.86,1,0,1.25-.27,1.25-1.26,0-5.38-.11-10.76.19-16.14.32-5.84,4.59-10.59,10-11,3.54-.27,6.62,1,8,4.5a13.78,13.78,0,0,1,.91,5c0,5.22,0,10.44,0,15.67,0,3.25,0,3.22,3.24,3.2.79,0,1-.24,1-1,0-2.55,0-5.11,0-7.66a108.53,108.53,0,0,0-.41-13.37c-1-7.67-7.83-12-15.27-9.65C1025.56,352.45,1023.2,354.45,1020.94,357.2Zm85.39,0v-2.72c0-2.87,0-2.82-2.86-2.87-1,0-1.25.28-1.25,1.26,0,9.17,0,18.35,0,27.52,0,2.76,0,2.69,2.71,2.79,1.22,0,1.4-.38,1.4-1.48,0-5.3-.12-10.6.17-15.9.31-5.76,4.54-10.75,10.24-11,3.58-.18,6.27,1.13,7.66,4.18a13.94,13.94,0,0,1,1.07,5.83c.06,5.07,0,10.13,0,15.2,0,3.26,0,3.23,3.26,3.2.82,0,1-.28,1-1-.07-6.38.16-12.76-.23-19.14a14,14,0,0,0-2-7.15,11.83,11.83,0,0,0-14.7-3.91A17.13,17.13,0,0,0,1106.33,357.19Zm-198.76,22.9a17.55,17.55,0,0,1-3-.26,12.72,12.72,0,0,1-10-9.38,12.55,12.55,0,0,1,4.45-12.92c5.11-4,14.67-3.71,19.14,2.1.43.56.79.59,1.39.24,2.79-1.64,2.83-1.89.52-4.22C912.49,348,898,349.77,892.42,359a16.19,16.19,0,0,0,7.63,23.59,19.81,19.81,0,0,0,12,.87,15.81,15.81,0,0,0,8.72-4.91c1.51-1.66,1.47-1.7-.35-2.89a3.61,3.61,0,0,1-.5-.33c-.73-.67-1.25-.62-1.95.19A13.23,13.23,0,0,1,907.57,380.09Zm417,3.79h.72a9,9,0,0,0,8.21-5.94,8.39,8.39,0,0,0-2.83-9.74,28.83,28.83,0,0,0-4.24-2.68,17.32,17.32,0,0,1-4.55-3.06c-1.14-1.22-1.76-2.6-1.11-4.24a4.34,4.34,0,0,1,4-2.89,7.51,7.51,0,0,1,4.7,1.49c.68.44,1.23,1.52,2,1.29s1.26-1.15,1.88-1.77l.25-.26c.35-.32.29-.58-.06-.88-2.66-2.29-5.49-4.09-9.26-3.66-3.32.37-5.76,2-6.88,5.11a7.93,7.93,0,0,0,1.92,8.91,21,21,0,0,0,4.86,3.26,23.28,23.28,0,0,1,4.07,2.5,4.63,4.63,0,0,1-.74,7.88c-2.71,1.54-5.22.86-7.6-.82-.72-.5-1.27-1.7-2.09-1.45s-1.22,1.3-1.87,1.94-.42.87.06,1.36A11.37,11.37,0,0,0,1324.55,383.88Zm-68.18,5c1.33,0,2.49-.05,3.64,0,.74.05,1-.27,1.26-.92q5.24-14.69,10.51-29.35c2.19-6.11,4.35-12.22,6.56-18.33.27-.76.24-1.1-.69-1a13.63,13.63,0,0,1-2.39,0c-.92-.08-1.28.29-1.59,1.16q-7.56,21.27-15.21,42.52C1257.77,384.89,1257.09,386.84,1256.37,388.91ZM930.65,356c0-.75-.08-1.14-.08-1.52,0-2.85,0-2.8-2.89-2.87-1,0-1.34.27-1.33,1.33,0,9.1,0,18.19,0,27.28,0,3,0,2.92,3,3,1,0,1.21-.27,1.2-1.2-.05-5.23-.08-10.45.17-15.67.14-3,.55-5.89,2.32-8.4,1.29-1.81,3-3.37,5.28-2.85,1.94.45,2.53-.37,3.18-1.7a3.43,3.43,0,0,1,.39-.6c.54-.64.24-.92-.4-1.21a7.12,7.12,0,0,0-7.16.74A16.51,16.51,0,0,0,930.65,356Zm410.14,11.74h0v12.43c0,3,0,3,3,3,1,0,1.19-.29,1.18-1.22,0-8.88,0-17.76,0-26.65,0-3,0-3-3-3-.94,0-1.11.29-1.1,1.13C1340.81,358.16,1340.79,362.94,1340.79,367.72Zm-160.53-.23v-13c0-2.86,0-2.81-2.88-2.86-1,0-1.26.27-1.26,1.26,0,9.13,0,18.25,0,27.38,0,2.92,0,2.88,2.92,2.92,1,0,1.22-.26,1.21-1.2C1180.23,377.14,1180.26,372.32,1180.26,367.49Zm-5.39-25.34a3.35,3.35,0,0,0,3.28,3.4,3.43,3.43,0,0,0,3.45-3.37,3.33,3.33,0,0,0-3.31-3.36A3.24,3.24,0,0,0,1174.87,342.15Zm168-2.56a3.34,3.34,0,0,0-3.38,3.28,3.44,3.44,0,0,0,3.36,3.36,3.38,3.38,0,0,0,3.29-3.28A3.22,3.22,0,0,0,1342.9,339.59Zm-55.24-21,.26,0v1.65c0,.31.06.57.45.56s.42-.29.42-.58c0-.92,0-1.83,0-2.75,0-.36,0-.74-.49-.79a.79.79,0,0,0-1,.51c-.23.61-.52,1.2-.83,1.89a6.58,6.58,0,0,1-1-2c-.23-.52-.65-.38-1-.37s-.39.32-.39.61v3c0,.32.12.54.49.52s.38-.24.38-.5c0-.63,0-1.27,0-1.91a6.59,6.59,0,0,1,.93,1.72c.12.27.14.69.56.66s.38-.36.48-.61C1287.19,319.7,1287.43,319.16,1287.66,318.63Zm-5.73-1.88h-1.2c-.25,0-.49,0-.49.37s.13.4.36.37c1.06-.1.86.65.87,1.26s0,1,0,1.55c0,.3,0,.58.43.58s.44-.27.44-.57c0-.68,0-1.35,0-2,0-.35-.07-.74.49-.76.31,0,.84.16.79-.42s-.55-.32-.88-.35A7.66,7.66,0,0,0,1281.93,316.75Z" transform="translate(-867.4 -286.67)"/><path class="cls-2" d="M867.43,379.09a6.29,6.29,0,0,0,1.89-1.92c.47-.57.77-.57,1.3,0A8.75,8.75,0,0,0,876,380c4,.47,7.36-3.33,6-6.85a6.23,6.23,0,0,0-2.87-2.95c-1.51-.89-3.07-1.69-4.58-2.58-2.41-1.42-4.65-3.06-5.39-5.95-.82-3.23-.28-6.23,2.3-8.53,2.8-2.48,6.08-2.81,9.52-1.54a15.32,15.32,0,0,1,4.71,3c.55.48.49.77,0,1.22-.67.62-1.19,1.62-2,1.86s-1.37-.88-2.09-1.34a7.69,7.69,0,0,0-4.81-1.48,4.38,4.38,0,0,0-4,2.83,3.88,3.88,0,0,0,1.1,4.45c1.71,1.76,4,2.65,6,3.87s4.33,2.6,5.46,5c2.94,6.21-1.83,13.12-8.91,12.93A11.82,11.82,0,0,1,868,380.2c-.16-.16-.28-.4-.56-.39Z" transform="translate(-867.4 -286.67)"/><path class="cls-3" d="M1152.8,296.94c1.34-2.85,2.7-5.69,4-8.55a1.5,1.5,0,0,1,1.58-1.06q65.77,0,131.55,0h1.34l-3.86,8.39q-5.76,12.4-11.49,24.83a1.65,1.65,0,0,1-1.77,1.16q-18.17-.06-36.33,0l-.1-.09q5.38-11.64,10.78-23.29c.63-1.35.65-1.33-.9-1.33h-93.38l-1.32,0Z" transform="translate(-867.4 -286.67)"/><path class="cls-2" d="M1163.47,356.88c0-1.64,0-3,0-4.42,0-.61.17-.88.82-.85.87,0,1.76,0,2.63,0,.66,0,.8.26.8.86,0,8.89,0,17.78-.06,26.67a28.74,28.74,0,0,1-.54,5,12.4,12.4,0,0,1-8.32,10c-6.29,2.22-12.49,1.88-18.28-1.7-2.4-1.48-3.8-3.82-5-6.26-.27-.54-.12-.72.46-.7,1,0,2.08.06,3.12,0a1.12,1.12,0,0,1,1,.62c3.21,4.95,8.07,5.84,13.43,5.35a12,12,0,0,0,6.48-2.57,8.26,8.26,0,0,0,3-5,27.3,27.3,0,0,0,.36-6.42c-4,4.31-8.8,6.18-14.44,5.51a15.78,15.78,0,0,1-10.68-5.78,16.33,16.33,0,0,1,1.37-21.67C1145.36,350.12,1155.87,348.17,1163.47,356.88Zm.2,10.31c0-7.08-5.11-12.3-12-12.3A12.51,12.51,0,0,0,1139,367.47c-.06,6.71,5.25,11.81,12.41,11.77C1159.74,379.19,1163.82,373.42,1163.67,367.19Z" transform="translate(-867.4 -286.67)"/><path class="cls-2" d="M960.36,367.82H947.29c-.43,0-.93-.19-.92.66.06,5.12,4.08,10.27,8.92,11.31a12.9,12.9,0,0,0,13.83-5.63c1-1.56,1-1.53,2.6-.71,2,1.05,1.95,1,.73,3.05-5.83,9.66-19.78,9.08-25.54,3-7.31-7.73-6.2-20.44,2.73-26.19,8.5-5.47,21.78-1.94,24.52,10.16.21,1,.28,2,.44,3s-.1,1.46-1.29,1.44C969,367.77,964.68,367.82,960.36,367.82Zm-2.05-3.62H969c.88.1,1.08-.28.77-1.05a24.42,24.42,0,0,0-1.07-2.52,12,12,0,0,0-11.93-5.7,11.59,11.59,0,0,0-9.71,8.45c-.24.83.11.82.72.82C951.28,364.18,954.79,364.19,958.31,364.2Z" transform="translate(-867.4 -286.67)"/><path class="cls-2" d="M1082.46,367.82h-12.7c-1.48,0-1.48,0-1.33,1.44.92,8.48,9.25,13.2,17.1,9.73a12.88,12.88,0,0,0,6-5.5c.46-.78.88-.88,1.57-.39a6.78,6.78,0,0,0,.84.45c1.77.94,1.74.92.75,2.61-5.44,9.25-17.06,9.21-23,5.51-8-5-10-16.46-4.37-24.22,4.23-5.82,11.35-8,18.44-5.75a16.16,16.16,0,0,1,10.84,15.14c0,.82-.28,1-1,1C1091.17,367.8,1086.82,367.82,1082.46,367.82Zm-2-3.62c3.51,0,7,0,10.54,0,.75,0,1.13-.07.79-1a13.55,13.55,0,0,0-1.47-3.24c-2.85-4.07-6.92-5.57-11.67-5s-7.91,3.58-9.5,8.15c-.32.92-.09,1.08.78,1.07C1073.4,364.18,1076.91,364.2,1080.42,364.2Z" transform="translate(-867.4 -286.67)"/><path class="cls-2" d="M997.14,367.82c-4.32,0-8.63,0-12.95,0-1.07,0-1.26.36-1.17,1.31a12,12,0,0,0,8.31,10.52,12.84,12.84,0,0,0,13.39-4.13,9.43,9.43,0,0,0,1.3-1.86c.46-1.05,1-.89,1.84-.45,2.52,1.36,2.55,1.35.91,3.73-3.37,4.9-8.1,7-14,7-9.48,0-15-7-15.94-14.23-1.18-9,4.73-16.85,12.36-18.49a16.22,16.22,0,0,1,20,15.91c0,.85-.44.67-.88.67ZM995,364.2c3.51,0,7,0,10.53,0,.91,0,1.08-.22.79-1.08a11.51,11.51,0,0,0-2.29-4.28,12,12,0,0,0-11.52-3.75c-4.56.83-7.31,3.75-8.8,8-.3.86-.18,1.1.75,1.09C988,364.17,991.51,364.19,995,364.2Z" transform="translate(-867.4 -286.67)"/><path class="cls-2" d="M1240.29,367.82c-4.31,0-8.63,0-12.94,0-.88,0-1.24.12-1.18,1.17.48,8.61,9.4,13.64,17.51,9.84a12.6,12.6,0,0,0,5.47-5.17c.48-.79.83-1,1.74-.52,2.61,1.5,2.66,1.47.87,4a15.4,15.4,0,0,1-14.11,6.78c-8.42-.41-14.1-5.21-15.55-13.48-1.72-9.74,4.86-17.63,12.23-19.19a16.29,16.29,0,0,1,20,15.34c0,1-.17,1.3-1.21,1.28C1248.84,367.78,1244.57,367.82,1240.29,367.82Zm-2.12-3.62c3.52,0,7,0,10.55,0,.77,0,1.12-.11.8-1a15.15,15.15,0,0,0-1.17-2.75c-2.75-4.43-6.91-6-11.89-5.54a11.31,11.31,0,0,0-9.66,8.33c-.25.88.14.92.81.91Z" transform="translate(-867.4 -286.67)"/><path class="cls-2" d="M1306.14,357.76c0-1.76,0-3.18,0-4.6,0-.65.17-.88.87-.9,3.18-.09,3.18-.11,3.18,3,0,8.89,0,17.78,0,26.67,0,.92-.19,1.24-1.18,1.22-2.86-.05-2.87,0-2.87-2.86v-2.36c-4,4.71-8.93,6.58-14.76,5.82a15.08,15.08,0,0,1-10-5.86,16.43,16.43,0,0,1,1.44-22,15.38,15.38,0,0,1,11.94-4.47C1299.46,351.7,1303.12,353.85,1306.14,357.76Zm-12,22.35a12,12,0,0,0,12.2-12.19,12.15,12.15,0,1,0-12.2,12.19Z" transform="translate(-867.4 -286.67)"/><path class="cls-4" d="M1166.3,329.8c-1.45,3.48-1.45,3.48-5.15,3.48h-52c-1.45,0-1.45,0-.86-1.26,2.31-5,4.64-10,6.91-15a1.49,1.49,0,0,1,1.62-1c2.56.06,5.11,0,7.67,0,.86.24.32.71.15,1.08-1.7,3.69-3.43,7.36-5.11,11.06-.61,1.33-.56,1.36.91,1.36h44.49C1165.4,329.56,1165.91,329.39,1166.3,329.8Z" transform="translate(-867.4 -286.67)"/><path class="cls-5" d="M1193.34,356.69a26.62,26.62,0,0,1,4.87-4c5-3,11.38-2.25,15.1,1.71a12.19,12.19,0,0,1,3.08,7.72c.52,6.73.12,13.47.25,20.21,0,.62-.19.8-.82.83-3.3.15-3.29.17-3.3-3.09,0-5.5.11-11-.16-16.5a11.32,11.32,0,0,0-1.47-5.48c-1.65-2.7-4.28-3.59-7.21-3.32a10.88,10.88,0,0,0-10.1,10.21c-.53,5.57-.17,11.15-.21,16.73,0,1.13-.25,1.5-1.44,1.47-2.83-.09-2.83,0-2.83-2.91,0-9.13,0-18.26,0-27.39,0-1,.24-1.29,1.26-1.28,3,.06,3,0,3,3Z" transform="translate(-867.4 -286.67)"/><path class="cls-2" d="M1020.94,357.2c2.26-2.75,4.62-4.75,7.76-5.74,7.44-2.33,14.26,2,15.27,9.65a108.53,108.53,0,0,1,.41,13.37c0,2.55,0,5.11,0,7.66,0,.78-.22,1-1,1-3.24,0-3.24,0-3.24-3.2,0-5.23,0-10.45,0-15.67a13.78,13.78,0,0,0-.91-5c-1.41-3.47-4.49-4.77-8-4.5-5.43.41-9.7,5.16-10,11-.3,5.38-.19,10.76-.19,16.14,0,1-.24,1.28-1.25,1.26-2.85-.06-2.85,0-2.85-2.86,0-9.13,0-18.27,0-27.4,0-1.07.29-1.33,1.33-1.31,2.77.07,2.77,0,2.78,2.83Z" transform="translate(-867.4 -286.67)"/><path class="cls-2" d="M1106.33,357.19a17.13,17.13,0,0,1,6.47-5.27,11.83,11.83,0,0,1,14.7,3.91,14,14,0,0,1,2,7.15c.39,6.38.16,12.76.23,19.14,0,.76-.17,1-1,1-3.25,0-3.25.06-3.26-3.2,0-5.07,0-10.13,0-15.2a13.94,13.94,0,0,0-1.07-5.83c-1.39-3.05-4.08-4.36-7.66-4.18-5.7.29-9.93,5.28-10.24,11-.29,5.3-.15,10.6-.17,15.9,0,1.1-.18,1.52-1.4,1.48-2.7-.1-2.71,0-2.71-2.79,0-9.17,0-18.35,0-27.52,0-1,.25-1.28,1.25-1.26,2.86,0,2.86,0,2.86,2.87Z" transform="translate(-867.4 -286.67)"/><path class="cls-2" d="M907.57,380.09A13.23,13.23,0,0,0,918,375.5c.7-.81,1.22-.86,1.95-.19a3.61,3.61,0,0,0,.5.33c1.82,1.19,1.86,1.23.35,2.89a15.81,15.81,0,0,1-8.72,4.91,19.81,19.81,0,0,1-12-.87A16.19,16.19,0,0,1,892.42,359c5.56-9.21,20.07-11,27.68-3.33,2.31,2.33,2.27,2.58-.52,4.22-.6.35-1,.32-1.39-.24-4.47-5.81-14-6.15-19.14-2.1a12.55,12.55,0,0,0-4.45,12.92,12.72,12.72,0,0,0,10,9.38A17.55,17.55,0,0,0,907.57,380.09Z" transform="translate(-867.4 -286.67)"/><path class="cls-6" d="M1166.3,329.8c-.39-.41-.9-.24-1.36-.24h-44.49c-1.47,0-1.52,0-.91-1.36,1.68-3.7,3.41-7.37,5.11-11.06.17-.37.71-.84-.15-1.08l.78-.16,9.54.1a1.85,1.85,0,0,0-.49.64c-1.25,2.75-2.51,5.49-3.84,8.2-.44.9-.37,1.14.68,1.13,4.11,0,8.21,0,12.32,0l24.54,0-1.49,3.62Z" transform="translate(-867.4 -286.67)"/><path class="cls-2" d="M1324.55,383.88a11.37,11.37,0,0,1-8.54-3.65c-.48-.49-.6-.84-.06-1.36s1.12-1.73,1.87-1.94,1.37.95,2.09,1.45c2.38,1.68,4.89,2.36,7.6.82a4.63,4.63,0,0,0,.74-7.88,23.28,23.28,0,0,0-4.07-2.5,21,21,0,0,1-4.86-3.26,7.93,7.93,0,0,1-1.92-8.91c1.12-3.12,3.56-4.74,6.88-5.11,3.77-.43,6.6,1.37,9.26,3.66.35.3.41.56.06.88l-.25.26c-.62.62-1.14,1.54-1.88,1.77s-1.31-.85-2-1.29a7.51,7.51,0,0,0-4.7-1.49,4.34,4.34,0,0,0-4,2.89c-.65,1.64,0,3,1.11,4.24a17.32,17.32,0,0,0,4.55,3.06,28.83,28.83,0,0,1,4.24,2.68,8.39,8.39,0,0,1,2.83,9.74,9,9,0,0,1-8.21,5.94Z" transform="translate(-867.4 -286.67)"/><path class="cls-2" d="M1256.37,388.91c.72-2.07,1.4-4,2.09-6q7.62-21.27,15.21-42.52c.31-.87.67-1.24,1.59-1.16a13.63,13.63,0,0,0,2.39,0c.93-.07,1,.27.69,1-2.21,6.11-4.37,12.22-6.56,18.33q-5.25,14.67-10.51,29.35c-.23.65-.52,1-1.26.92C1258.86,388.86,1257.7,388.91,1256.37,388.91Z" transform="translate(-867.4 -286.67)"/><path class="cls-2" d="M930.65,356a16.51,16.51,0,0,1,3.72-3.71,7.12,7.12,0,0,1,7.16-.74c.64.29.94.57.4,1.21a3.43,3.43,0,0,0-.39.6c-.65,1.33-1.24,2.15-3.18,1.7-2.24-.52-4,1-5.28,2.85-1.77,2.51-2.18,5.43-2.32,8.4-.25,5.22-.22,10.44-.17,15.67,0,.93-.24,1.21-1.2,1.2-3,0-3,0-3-3,0-9.09,0-18.18,0-27.28,0-1.06.28-1.35,1.33-1.33,2.88.07,2.88,0,2.89,2.87C930.57,354.84,930.61,355.23,930.65,356Z" transform="translate(-867.4 -286.67)"/><path class="cls-7" d="M1237.55,322c-.5,1.17-1,2.33-1.51,3.5a.78.78,0,0,1-.85.48l-38,0a3.61,3.61,0,0,1,.62-1.9,4.83,4.83,0,0,0,.84-2.32l.47-.06,1.55,0,36.82,0Z" transform="translate(-867.4 -286.67)"/><path class="cls-5" d="M1340.79,367.72c0-4.78,0-9.56,0-14.34,0-.84.16-1.15,1.1-1.13,3,.06,3,0,3,3,0,8.89,0,17.77,0,26.65,0,.93-.21,1.23-1.18,1.22-3,0-3,0-3-3V367.72Z" transform="translate(-867.4 -286.67)"/><path class="cls-2" d="M1180.26,367.49c0,4.83,0,9.65,0,14.47,0,.94-.26,1.21-1.21,1.2-2.92,0-2.92,0-2.92-2.92,0-9.13,0-18.25,0-27.38,0-1,.26-1.28,1.26-1.26,2.88,0,2.88,0,2.88,2.86Z" transform="translate(-867.4 -286.67)"/><path class="cls-8" d="M1198.68,321.69a4.83,4.83,0,0,1-.84,2.32,3.61,3.61,0,0,0-.62,1.9.65.65,0,0,1-.21.06l-28.8,0,2-4.29h8.15Z" transform="translate(-867.4 -286.67)"/><path class="cls-9" d="M1168.21,326l28.8,0a1,1,0,0,1,0,.23c-1.48,3.4-1.48,3.4-5.19,3.4h-25.23c.49-1.21,1-2.42,1.49-3.62Z" transform="translate(-867.4 -286.67)"/><path class="cls-7" d="M1139,306.39a60.81,60.81,0,0,0,2.86-5.85c.59-1.16.87-2.7,1.79-3.41s2.45-.17,3.72-.19c1.83,0,3.66,0,5.48,0l.1.08c-.93,2-1.91,3.93-2.77,5.94a13.35,13.35,0,0,0-1.38,3.39.76.76,0,0,1,0,.15l-.42.08H1139A1.09,1.09,0,0,1,1139,306.39Z" transform="translate(-867.4 -286.67)"/><path class="cls-9" d="M1139,306.39a1.09,1.09,0,0,0,0,.18c-.74,1.62-1.54,3.22-2.19,4.87s-1.59,2.84-1.91,4.46l0,.1-9.54-.1c1.35-2.93,2.71-5.84,4-8.78a1.06,1.06,0,0,1,1.13-.78C1133.28,306.39,1136.12,306.38,1139,306.39Z" transform="translate(-867.4 -286.67)"/><path class="cls-2" d="M1174.87,342.15a3.24,3.24,0,0,1,3.42-3.33,3.33,3.33,0,0,1,3.31,3.36,3.43,3.43,0,0,1-3.45,3.37A3.35,3.35,0,0,1,1174.87,342.15Z" transform="translate(-867.4 -286.67)"/><path class="cls-2" d="M1342.9,339.59a3.22,3.22,0,0,1,3.27,3.36,3.38,3.38,0,0,1-3.29,3.28,3.44,3.44,0,0,1-3.36-3.36A3.34,3.34,0,0,1,1342.9,339.59Z" transform="translate(-867.4 -286.67)"/><path class="cls-5" d="M1287.66,318.63c-.23.53-.47,1.07-.7,1.61-.1.25-.15.59-.48.61s-.44-.39-.56-.66a6.59,6.59,0,0,0-.93-1.72c0,.64,0,1.28,0,1.91,0,.26-.06.48-.38.5s-.49-.2-.49-.52v-3c0-.29,0-.6.39-.61s.79-.15,1,.37a6.58,6.58,0,0,0,1,2c.31-.69.6-1.28.83-1.89a.79.79,0,0,1,1-.51c.53.05.48.43.49.79,0,.92,0,1.83,0,2.75,0,.29,0,.57-.42.58s-.45-.25-.45-.56v-1.65Z" transform="translate(-867.4 -286.67)"/><path class="cls-5" d="M1281.93,316.75a7.66,7.66,0,0,1,.83,0c.33,0,.83-.18.88.35s-.48.4-.79.42c-.56,0-.49.41-.49.76,0,.68,0,1.35,0,2,0,.3,0,.57-.44.57s-.43-.28-.43-.58c0-.51,0-1,0-1.55s.19-1.36-.87-1.26c-.23,0-.36-.14-.36-.37s.24-.36.49-.37Z" transform="translate(-867.4 -286.67)"/><path class="cls-8" d="M1237.55,322l0-.31.2-.06.1.09Z" transform="translate(-867.4 -286.67)"/><path class="cls-10" d="M1237.72,321.61l-.2.06-36.82,0-1.55,0a14.37,14.37,0,0,1,1.42-3.5c1.73-3.87,3.52-7.72,5.29-11.57a.17.17,0,0,0,0-.11s0-.08-.06-.08c-2.07,0-4.14,0-6.21,0l-50.87,0a13.35,13.35,0,0,1,1.38-3.39c.86-2,1.84-4,2.77-5.94l1.32,0h93.38c1.55,0,1.53,0,.9,1.33Q1243.1,310,1237.72,321.61Z" transform="translate(-867.4 -286.67)"/><path class="cls-11" d="M1163.67,367.19c.15,6.23-3.93,12-12.26,12.05-7.16,0-12.47-5.06-12.41-11.77a12.51,12.51,0,0,1,12.64-12.58C1158.56,354.89,1163.66,360.11,1163.67,367.19Z" transform="translate(-867.4 -286.67)"/><path class="cls-12" d="M958.31,364.19c-3.52,0-7,0-10.55,0-.61,0-1,0-.72-.82a11.59,11.59,0,0,1,9.71-8.45,12,12,0,0,1,11.93,5.7,24.42,24.42,0,0,1,1.07,2.52c.31.77.11,1.15-.77,1.05H958.31Z" transform="translate(-867.4 -286.67)"/><path class="cls-12" d="M1080.42,364.2c-3.51,0-7,0-10.53,0-.87,0-1.1-.15-.78-1.07,1.59-4.57,4.62-7.57,9.5-8.15s8.82.93,11.67,5a13.55,13.55,0,0,1,1.47,3.24c.34.91,0,1-.79,1C1087.45,364.18,1083.93,364.2,1080.42,364.2Z" transform="translate(-867.4 -286.67)"/><path class="cls-12" d="M995,364.19c-3.52,0-7,0-10.54,0-.93,0-1-.23-.75-1.09,1.49-4.27,4.24-7.19,8.8-8a12,12,0,0,1,11.52,3.75,11.51,11.51,0,0,1,2.29,4.28c.29.86.12,1.09-.79,1.08C1002.05,364.17,998.54,364.2,995,364.19Z" transform="translate(-867.4 -286.67)"/><path class="cls-12" d="M1238.17,364.2h-10.56c-.67,0-1.06,0-.81-.91a11.31,11.31,0,0,1,9.66-8.33c5-.45,9.14,1.11,11.89,5.54a15.15,15.15,0,0,1,1.17,2.75c.32.85,0,1-.8,1C1245.2,364.18,1241.69,364.2,1238.17,364.2Z" transform="translate(-867.4 -286.67)"/><path class="cls-11" d="M1294.18,380.11a12.37,12.37,0,1,1,12.2-12.19A12,12,0,0,1,1294.18,380.11Z" transform="translate(-867.4 -286.67)"/><path class="cls-13" d="M1168.21,326l-.18,0-24.54,0c-4.11,0-8.21,0-12.32,0-1.05,0-1.12-.23-.68-1.13,1.33-2.71,2.59-5.45,3.84-8.2a1.85,1.85,0,0,1,.49-.64l0-.1,8.89.11v.61c-.56,1.27-1.12,2.55-1.69,3.81s-.55,1.22.84,1.22h27.26Z" transform="translate(-867.4 -286.67)"/><path class="cls-14" d="M1205.86,306.56c-1.77,3.85-3.56,7.7-5.29,11.57a14.37,14.37,0,0,0-1.42,3.5l-.47.06-20.37,0h-8.22c.66-1.4,1.33-2.79,2-4.19s.72-1.52-.94-1.52l-26.91,0c.71-1.58,1.47-3.15,2.12-4.76a36,36,0,0,0,2-4.56l.42-.08c.52,0,1,.06,1.55.06Z" transform="translate(-867.4 -286.67)"/><path class="cls-8" d="M1148.32,306.58a36,36,0,0,1-2,4.56c-.65,1.61-1.41,3.18-2.12,4.76l-.23.11h-.25l-8.89-.11c.32-1.62,1.32-2.95,1.91-4.46s1.45-3.25,2.19-4.87Z" transform="translate(-867.4 -286.67)"/><path class="cls-9" d="M1205.86,306.56h-55.57c-.51,0-1,0-1.55-.06a.76.76,0,0,0,0-.15l50.87,0c2.07,0,4.14,0,6.21,0,0,0,.06.05.06.08A.17.17,0,0,1,1205.86,306.56Z" transform="translate(-867.4 -286.67)"/><path class="cls-15" d="M1144,316l.23-.11,26.91,0c1.66,0,1.66,0,.94,1.52s-1.33,2.79-2,4.19H1142.9c-1.39,0-1.39,0-.84-1.22s1.13-2.54,1.69-3.81C1144,316.49,1144,316.24,1144,316Z" transform="translate(-867.4 -286.67)"/><path class="cls-6" d="M1144,316c0,.23,0,.48-.25.61V316Z" transform="translate(-867.4 -286.67)"/></svg>